+ filenameToUse=/home/horvathandras/vatic/vatic/public/videouploads/DJI_0005_30m_taposas_gabona_repce_kistape_kistape_20180313_napos_kalaszos_T1.avi
+ filenameNoDot=DJI_0005_30m_taposas_gabona_repce_kistape_kistape_20180313_napos_kalaszos_T1
+ FullUploadPath=/home/horvathandras/vatic/vatic/public/videouploads/DJI_0005_30m_taposas_gabona_repce_kistape_kistape_20180313_napos_kalaszos_T1.avi
+ VideoDataDir=/home/horvathandras/vatic/vatic/videos
+ AvailableObjectTypes='PozitívROI NegatívROI Túrás ~Friss ~1-2Hetes ~Régebbi ~Egyéb1 ~Egyéb2 ~Egyéb3 Rágás ~Friss ~1-2Hetes ~Régebbi ~Egyéb1 ~Egyéb2 ~Egyéb3 Törés ~Friss ~1-2Hetes ~Régebbi ~Egyéb1 ~Egyéb2 ~Egyéb3 Taposás ~Friss ~1-2Hetes ~Régebbi ~Egyéb1 ~Egyéb2 ~Egyéb3 EgészségesNövény Egyéb1 Egyéb2 Egyéb3 Egyéb4 Egyéb5 Bizonytalan Művelőút Gktaposás Vetőhiba Széldöntés Jégkár Belvíz Aszály Erózió EgyszikűGyom KétszikűGyom EgyébNövvédelmiPR'
++ dirname /home/horvathandras/vatic/vatic/vatic_publisher.sh
+ cd /home/horvathandras/vatic/vatic
+ touch /home/horvathandras/vatic/vatic/public/videouploads/DJI_0005_30m_taposas_gabona_repce_kistape_kistape_20180313_napos_kalaszos_T1.avi
+ chmod 744 /home/horvathandras/vatic/vatic/public/videouploads/DJI_0005_30m_taposas_gabona_repce_kistape_kistape_20180313_napos_kalaszos_T1.avi
+ mkdir /home/horvathandras/vatic/vatic/videos/DJI_0005_30m_taposas_gabona_repce_kistape_kistape_20180313_napos_kalaszos_T1
+ turkic extract /home/horvathandras/vatic/vatic/public/videouploads/DJI_0005_30m_taposas_gabona_repce_kistape_kistape_20180313_napos_kalaszos_T1.avi /home/horvathandras/vatic/vatic/videos/DJI_0005_30m_taposas_gabona_repce_kistape_kistape_20180313_napos_kalaszos_T1 --no-resize
ffmpeg version 2.8.14-0ubuntu0.16.04.1 Copyright (c) 2000-2018 the FFmpeg developers
  built with gcc 5.4.0 (Ubuntu 5.4.0-6ubuntu1~16.04.9) 20160609
  configuration: --prefix=/usr --extra-version=0ubuntu0.16.04.1 --build-suffix=-ffmpeg --toolchain=hardened --libdir=/usr/lib/x86_64-linux-gnu --incdir=/usr/include/x86_64-linux-gnu --cc=cc --cxx=g++ --enable-gpl --enable-shared --disable-stripping --disable-decoder=libopenjpeg --disable-decoder=libschroedinger --enable-avresample --enable-avisynth --enable-gnutls --enable-ladspa --enable-libass --enable-libbluray --enable-libbs2b --enable-libcaca --enable-libcdio --enable-libflite --enable-libfontconfig --enable-libfreetype --enable-libfribidi --enable-libgme --enable-libgsm --enable-libmodplug --enable-libmp3lame --enable-libopenjpeg --enable-libopus --enable-libpulse --enable-librtmp --enable-libschroedinger --enable-libshine --enable-libsnappy --enable-libsoxr --enable-libspeex --enable-libssh --enable-libtheora --enable-libtwolame --enable-libvorbis --enable-libvpx --enable-libwavpack --enable-libwebp --enable-libx265 --enable-libxvid --enable-libzvbi --enable-openal --enable-opengl --enable-x11grab --enable-libdc1394 --enable-libiec61883 --enable-libzmq --enable-frei0r --enable-libx264 --enable-libopencv
  libavutil      54. 31.100 / 54. 31.100
  libavcodec     56. 60.100 / 56. 60.100
  libavformat    56. 40.101 / 56. 40.101
  libavdevice    56.  4.100 / 56.  4.100
  libavfilter     5. 40.101 /  5. 40.101
  libavresample   2.  1.  0 /  2.  1.  0
  libswscale      3.  1.101 /  3.  1.101
  libswresample   1.  2.101 /  1.  2.101
  libpostproc    53.  3.100 / 53.  3.100
Input #0, mov,mp4,m4a,3gp,3g2,mj2, from '/home/horvathandras/vatic/vatic/public/videouploads/DJI_0005_30m_taposas_gabona_repce_kistape_kistape_20180313_napos_kalaszos_T1.avi':
  Metadata:
    major_brand     : qt  
    minor_version   : 537986816
    compatible_brands: qt  
    creation_time   : 2018-03-13 15:11:21
    location        : +46.669848+18.710917+30.700
    location-{    : +46.669848+18.710917+30.700
    comment         : DE=None, Mode=P, DSW=0001
  Duration: 00:00:46.88, start: 0.000000, bitrate: 100297 kb/s
    Stream #0:0(eng): Video: h264 (High) (avc1 / 0x31637661), yuv420p(tv, bt709), 3840x2160 [SAR 1:1 DAR 16:9], 100202 kb/s, 29.97 fps, 29.97 tbr, 30k tbn, 59.94 tbc (default)
    Metadata:
      creation_time   : 2018-03-13 15:11:21
      handler_name    : DJI.AVC
      encoder         : AVC encoder
    Stream #0:1(eng): Data: none (priv / 0x76697270), 89 kb/s
    Metadata:
      creation_time   : 2018-03-13 15:11:21
      handler_name    : DJI.Meta
Please use -b:a or -b:v, -b is ambiguous
[swscaler @ 0x723fc0] deprecated pixel format used, make sure you did set range correctly
Output #0, image2, to '/tmp/pyvision-ffmpeg-241751871/%d.jpg':
  Metadata:
    major_brand     : qt  
    minor_version   : 537986816
    compatible_brands: qt  
    comment         : DE=None, Mode=P, DSW=0001
    location        : +46.669848+18.710917+30.700
    location-{    : +46.669848+18.710917+30.700
    encoder         : Lavf56.40.101
    Stream #0:0(eng): Video: mjpeg, yuvj420p(pc), 3840x2160 [SAR 1:1 DAR 16:9], q=2-31, 10000 kb/s, 29.97 fps, 29.97 tbn, 29.97 tbc (default)
    Metadata:
      creation_time   : 2018-03-13 15:11:21
      handler_name    : DJI.AVC
      encoder         : Lavc56.60.100 mjpeg
Stream mapping:
  Stream #0:0 -> #0:0 (h264 (native) -> mjpeg (native))
Press [q] to stop, [?] for help
frame=    1 fps=0.0 q=20.4 size=N/A time=00:00:00.03 bitrate=N/A    frame=    5 fps=3.6 q=24.8 size=N/A time=00:00:00.16 bitrate=N/A    frame=    9 fps=4.7 q=24.8 size=N/A time=00:00:00.30 bitrate=N/A    frame=   13 fps=5.3 q=24.8 size=N/A time=00:00:00.43 bitrate=N/A    frame=   17 fps=5.6 q=24.8 size=N/A time=00:00:00.56 bitrate=N/A    frame=   21 fps=5.9 q=24.8 size=N/A time=00:00:00.70 bitrate=N/A    frame=   25 fps=6.1 q=24.8 size=N/A time=00:00:00.83 bitrate=N/A    frame=   29 fps=6.3 q=24.8 size=N/A time=00:00:00.96 bitrate=N/A    frame=   32 fps=6.1 q=24.8 size=N/A time=00:00:01.06 bitrate=N/A    frame=   36 fps=6.2 q=24.8 size=N/A time=00:00:01.20 bitrate=N/A    frame=   40 fps=6.3 q=24.8 size=N/A time=00:00:01.33 bitrate=N/A    frame=   44 fps=6.4 q=24.8 size=N/A time=00:00:01.46 bitrate=N/A    frame=   48 fps=6.5 q=24.8 size=N/A time=00:00:01.60 bitrate=N/A    frame=   52 fps=6.5 q=24.8 size=N/A time=00:00:01.73 bitrate=N/A    frame=   56 fps=6.6 q=24.8 size=N/A time=00:00:01.86 bitrate=N/A    frame=   60 fps=6.6 q=24.8 size=N/A time=00:00:02.00 bitrate=N/A    frame=   64 fps=6.6 q=24.8 size=N/A time=00:00:02.13 bitrate=N/A    frame=   68 fps=6.7 q=24.8 size=N/A time=00:00:02.26 bitrate=N/A    frame=   72 fps=6.7 q=24.8 size=N/A time=00:00:02.40 bitrate=N/A    frame=   76 fps=6.7 q=24.8 size=N/A time=00:00:02.53 bitrate=N/A    frame=   80 fps=6.8 q=24.8 size=N/A time=00:00:02.66 bitrate=N/A    frame=   84 fps=6.8 q=24.8 size=N/A time=00:00:02.80 bitrate=N/A    frame=   88 fps=6.8 q=24.8 size=N/A time=00:00:02.93 bitrate=N/A    frame=   92 fps=6.8 q=24.8 size=N/A time=00:00:03.06 bitrate=N/A    frame=   96 fps=6.8 q=24.8 size=N/A time=00:00:03.20 bitrate=N/A    frame=  100 fps=6.8 q=24.8 size=N/A time=00:00:03.33 bitrate=N/A    frame=  104 fps=6.8 q=24.8 size=N/A time=00:00:03.47 bitrate=N/A    frame=  108 fps=6.9 q=24.8 size=N/A time=00:00:03.60 bitrate=N/A    frame=  112 fps=6.9 q=24.8 size=N/A time=00:00:03.73 bitrate=N/A    frame=  116 fps=6.9 q=24.8 size=N/A time=00:00:03.87 bitrate=N/A    frame=  119 fps=6.9 q=24.8 size=N/A time=00:00:03.97 bitrate=N/A    frame=  123 fps=6.9 q=24.8 size=N/A time=00:00:04.10 bitrate=N/A    frame=  127 fps=6.9 q=24.8 size=N/A time=00:00:04.23 bitrate=N/A    frame=  131 fps=6.9 q=24.8 size=N/A time=00:00:04.37 bitrate=N/A    frame=  135 fps=6.9 q=24.8 size=N/A time=00:00:04.50 bitrate=N/A    frame=  139 fps=6.9 q=24.8 size=N/A time=00:00:04.63 bitrate=N/A    frame=  143 fps=6.9 q=24.8 size=N/A time=00:00:04.77 bitrate=N/A    frame=  147 fps=6.9 q=24.8 size=N/A time=00:00:04.90 bitrate=N/A    frame=  151 fps=6.9 q=24.8 size=N/A time=00:00:05.03 bitrate=N/A    frame=  155 fps=6.9 q=24.8 size=N/A time=00:00:05.17 bitrate=N/A    frame=  159 fps=6.9 q=24.8 size=N/A time=00:00:05.30 bitrate=N/A    frame=  163 fps=7.0 q=24.8 size=N/A time=00:00:05.43 bitrate=N/A    frame=  167 fps=7.0 q=24.8 size=N/A time=00:00:05.57 bitrate=N/A    frame=  171 fps=7.0 q=24.8 size=N/A time=00:00:05.70 bitrate=N/A    frame=  175 fps=7.0 q=24.8 size=N/A time=00:00:05.83 bitrate=N/A    frame=  179 fps=7.0 q=24.8 size=N/A time=00:00:05.97 bitrate=N/A    frame=  182 fps=7.0 q=24.8 size=N/A time=00:00:06.07 bitrate=N/A    frame=  186 fps=7.0 q=24.8 size=N/A time=00:00:06.20 bitrate=N/A    frame=  190 fps=7.0 q=24.8 size=N/A time=00:00:06.33 bitrate=N/A    frame=  194 fps=7.0 q=24.8 size=N/A time=00:00:06.47 bitrate=N/A    frame=  198 fps=7.0 q=24.8 size=N/A time=00:00:06.60 bitrate=N/A    frame=  202 fps=7.0 q=24.8 size=N/A time=00:00:06.74 bitrate=N/A    frame=  206 fps=7.0 q=24.8 size=N/A time=00:00:06.87 bitrate=N/A    frame=  210 fps=7.0 q=24.8 size=N/A time=00:00:07.00 bitrate=N/A    frame=  214 fps=7.0 q=24.8 size=N/A time=00:00:07.14 bitrate=N/A    frame=  218 fps=7.0 q=24.8 size=N/A time=00:00:07.27 bitrate=N/A    frame=  222 fps=7.0 q=24.8 size=N/A time=00:00:07.40 bitrate=N/A    frame=  226 fps=7.0 q=24.8 size=N/A time=00:00:07.54 bitrate=N/A    frame=  230 fps=7.0 q=24.8 size=N/A time=00:00:07.67 bitrate=N/A    frame=  234 fps=7.0 q=24.8 size=N/A time=00:00:07.80 bitrate=N/A    frame=  238 fps=7.0 q=24.8 size=N/A time=00:00:07.94 bitrate=N/A    frame=  242 fps=7.0 q=24.8 size=N/A time=00:00:08.07 bitrate=N/A    frame=  246 fps=7.0 q=24.8 size=N/A time=00:00:08.20 bitrate=N/A    frame=  250 fps=7.0 q=24.8 size=N/A time=00:00:08.34 bitrate=N/A    frame=  254 fps=7.0 q=24.8 size=N/A time=00:00:08.47 bitrate=N/A    frame=  258 fps=7.1 q=24.8 size=N/A time=00:00:08.60 bitrate=N/A    frame=  262 fps=7.1 q=24.8 size=N/A time=00:00:08.74 bitrate=N/A    frame=  266 fps=7.1 q=24.8 size=N/A time=00:00:08.87 bitrate=N/A    frame=  270 fps=7.0 q=24.8 size=N/A time=00:00:09.00 bitrate=N/A    frame=  274 fps=7.1 q=24.8 size=N/A time=00:00:09.14 bitrate=N/A    frame=  278 fps=7.1 q=24.8 size=N/A time=00:00:09.27 bitrate=N/A    frame=  282 fps=7.1 q=24.8 size=N/A time=00:00:09.40 bitrate=N/A    frame=  286 fps=7.1 q=24.8 size=N/A time=00:00:09.54 bitrate=N/A    frame=  290 fps=7.1 q=24.8 size=N/A time=00:00:09.67 bitrate=N/A    frame=  294 fps=7.1 q=24.8 size=N/A time=00:00:09.80 bitrate=N/A    frame=  298 fps=7.1 q=24.8 size=N/A time=00:00:09.94 bitrate=N/A    frame=  302 fps=7.1 q=24.8 size=N/A time=00:00:10.07 bitrate=N/A    frame=  306 fps=7.1 q=24.8 size=N/A time=00:00:10.21 bitrate=N/A    frame=  310 fps=7.1 q=24.8 size=N/A time=00:00:10.34 bitrate=N/A    frame=  314 fps=7.1 q=24.8 size=N/A time=00:00:10.47 bitrate=N/A    frame=  318 fps=7.1 q=24.8 size=N/A time=00:00:10.61 bitrate=N/A    frame=  322 fps=7.1 q=24.8 size=N/A time=00:00:10.74 bitrate=N/A    frame=  326 fps=7.1 q=24.8 size=N/A time=00:00:10.87 bitrate=N/A    frame=  330 fps=7.1 q=24.8 size=N/A time=00:00:11.01 bitrate=N/A    frame=  334 fps=7.1 q=24.8 size=N/A time=00:00:11.14 bitrate=N/A    frame=  338 fps=7.1 q=24.8 size=N/A time=00:00:11.27 bitrate=N/A    frame=  342 fps=7.1 q=24.8 size=N/A time=00:00:11.41 bitrate=N/A    frame=  346 fps=7.1 q=24.8 size=N/A time=00:00:11.54 bitrate=N/A    frame=  350 fps=7.1 q=24.8 size=N/A time=00:00:11.67 bitrate=N/A    frame=  354 fps=7.1 q=24.8 size=N/A time=00:00:11.81 bitrate=N/A    frame=  358 fps=7.1 q=24.8 size=N/A time=00:00:11.94 bitrate=N/A    frame=  361 fps=7.1 q=24.8 size=N/A time=00:00:12.04 bitrate=N/A    frame=  365 fps=7.1 q=24.8 size=N/A time=00:00:12.17 bitrate=N/A    frame=  369 fps=7.1 q=24.8 size=N/A time=00:00:12.31 bitrate=N/A    frame=  373 fps=7.1 q=24.8 size=N/A time=00:00:12.44 bitrate=N/A    frame=  377 fps=7.1 q=24.8 size=N/A time=00:00:12.57 bitrate=N/A    frame=  381 fps=7.1 q=24.8 size=N/A time=00:00:12.71 bitrate=N/A    frame=  385 fps=7.1 q=24.8 size=N/A time=00:00:12.84 bitrate=N/A    frame=  389 fps=7.1 q=24.8 size=N/A time=00:00:12.97 bitrate=N/A    frame=  393 fps=7.1 q=24.8 size=N/A time=00:00:13.11 bitrate=N/A    frame=  397 fps=7.1 q=24.8 size=N/A time=00:00:13.24 bitrate=N/A    frame=  401 fps=7.1 q=24.8 size=N/A time=00:00:13.38 bitrate=N/A    frame=  405 fps=7.1 q=24.8 size=N/A time=00:00:13.51 bitrate=N/A    frame=  409 fps=7.1 q=24.8 size=N/A time=00:00:13.64 bitrate=N/A    frame=  413 fps=7.1 q=24.8 size=N/A time=00:00:13.78 bitrate=N/A    frame=  417 fps=7.1 q=24.8 size=N/A time=00:00:13.91 bitrate=N/A    frame=  421 fps=7.1 q=24.8 size=N/A time=00:00:14.04 bitrate=N/A    frame=  425 fps=7.1 q=24.8 size=N/A time=00:00:14.18 bitrate=N/A    frame=  429 fps=7.1 q=24.8 size=N/A time=00:00:14.31 bitrate=N/A    frame=  433 fps=7.1 q=24.8 size=N/A time=00:00:14.44 bitrate=N/A    frame=  437 fps=7.1 q=24.8 size=N/A time=00:00:14.58 bitrate=N/A    frame=  441 fps=7.1 q=24.8 size=N/A time=00:00:14.71 bitrate=N/A    frame=  445 fps=7.1 q=24.8 size=N/A time=00:00:14.84 bitrate=N/A    frame=  449 fps=7.1 q=24.8 size=N/A time=00:00:14.98 bitrate=N/A    frame=  453 fps=7.1 q=24.8 size=N/A time=00:00:15.11 bitrate=N/A    frame=  457 fps=7.1 q=24.8 size=N/A time=00:00:15.24 bitrate=N/A    frame=  461 fps=7.1 q=24.8 size=N/A time=00:00:15.38 bitrate=N/A    frame=  465 fps=7.1 q=24.8 size=N/A time=00:00:15.51 bitrate=N/A    frame=  469 fps=7.1 q=24.8 size=N/A time=00:00:15.64 bitrate=N/A    frame=  473 fps=7.1 q=24.8 size=N/A time=00:00:15.78 bitrate=N/A    frame=  477 fps=7.1 q=24.8 size=N/A time=00:00:15.91 bitrate=N/A    frame=  481 fps=7.1 q=24.8 size=N/A time=00:00:16.04 bitrate=N/A    frame=  485 fps=7.1 q=24.8 size=N/A time=00:00:16.18 bitrate=N/A    frame=  489 fps=7.1 q=24.8 size=N/A time=00:00:16.31 bitrate=N/A    frame=  493 fps=7.1 q=24.8 size=N/A time=00:00:16.44 bitrate=N/A    frame=  497 fps=7.1 q=24.8 size=N/A time=00:00:16.58 bitrate=N/A    frame=  501 fps=7.1 q=24.8 size=N/A time=00:00:16.71 bitrate=N/A    frame=  505 fps=7.1 q=24.8 size=N/A time=00:00:16.85 bitrate=N/A    frame=  509 fps=7.1 q=24.8 size=N/A time=00:00:16.98 bitrate=N/A    frame=  513 fps=7.1 q=24.8 size=N/A time=00:00:17.11 bitrate=N/A    frame=  517 fps=7.1 q=24.8 size=N/A time=00:00:17.25 bitrate=N/A    frame=  521 fps=7.1 q=24.8 size=N/A time=00:00:17.38 bitrate=N/A    frame=  525 fps=7.1 q=24.8 size=N/A time=00:00:17.51 bitrate=N/A    frame=  529 fps=7.1 q=24.8 size=N/A time=00:00:17.65 bitrate=N/A    frame=  533 fps=7.1 q=24.8 size=N/A time=00:00:17.78 bitrate=N/A    frame=  537 fps=7.1 q=24.8 size=N/A time=00:00:17.91 bitrate=N/A    frame=  541 fps=7.1 q=24.8 size=N/A time=00:00:18.05 bitrate=N/A    frame=  545 fps=7.1 q=24.8 size=N/A time=00:00:18.18 bitrate=N/A    frame=  549 fps=7.1 q=24.8 size=N/A time=00:00:18.31 bitrate=N/A    frame=  553 fps=7.1 q=24.8 size=N/A time=00:00:18.45 bitrate=N/A    frame=  557 fps=7.1 q=24.8 size=N/A time=00:00:18.58 bitrate=N/A    frame=  561 fps=7.1 q=24.8 size=N/A time=00:00:18.71 bitrate=N/A    frame=  565 fps=7.1 q=24.8 size=N/A time=00:00:18.85 bitrate=N/A    frame=  569 fps=7.1 q=24.8 size=N/A time=00:00:18.98 bitrate=N/A    frame=  572 fps=7.1 q=24.8 size=N/A time=00:00:19.08 bitrate=N/A    frame=  576 fps=7.1 q=24.8 size=N/A time=00:00:19.21 bitrate=N/A    frame=  580 fps=7.1 q=24.8 size=N/A time=00:00:19.35 bitrate=N/A    frame=  584 fps=7.1 q=24.8 size=N/A time=00:00:19.48 bitrate=N/A    frame=  588 fps=7.1 q=24.8 size=N/A time=00:00:19.61 bitrate=N/A    frame=  592 fps=7.1 q=24.8 size=N/A time=00:00:19.75 bitrate=N/A    frame=  596 fps=7.1 q=24.8 size=N/A time=00:00:19.88 bitrate=N/A    frame=  600 fps=7.1 q=24.8 size=N/A time=00:00:20.02 bitrate=N/A    frame=  604 fps=7.1 q=24.8 size=N/A time=00:00:20.15 bitrate=N/A    frame=  608 fps=7.1 q=24.8 size=N/A time=00:00:20.28 bitrate=N/A    frame=  612 fps=7.1 q=24.8 size=N/A time=00:00:20.42 bitrate=N/A    frame=  616 fps=7.1 q=24.8 size=N/A time=00:00:20.55 bitrate=N/A    frame=  620 fps=7.1 q=24.8 size=N/A time=00:00:20.68 bitrate=N/A    frame=  624 fps=7.1 q=24.8 size=N/A time=00:00:20.82 bitrate=N/A    frame=  628 fps=7.1 q=24.8 size=N/A time=00:00:20.95 bitrate=N/A    frame=  632 fps=7.1 q=24.8 size=N/A time=00:00:21.08 bitrate=N/A    frame=  636 fps=7.1 q=24.8 size=N/A time=00:00:21.22 bitrate=N/A    frame=  640 fps=7.1 q=24.8 size=N/A time=00:00:21.35 bitrate=N/A    frame=  644 fps=7.1 q=24.8 size=N/A time=00:00:21.48 bitrate=N/A    frame=  648 fps=7.1 q=24.8 size=N/A time=00:00:21.62 bitrate=N/A    frame=  652 fps=7.1 q=24.8 size=N/A time=00:00:21.75 bitrate=N/A    frame=  656 fps=7.1 q=24.8 size=N/A time=00:00:21.88 bitrate=N/A    frame=  660 fps=7.1 q=24.8 size=N/A time=00:00:22.02 bitrate=N/A    frame=  663 fps=7.1 q=24.8 size=N/A time=00:00:22.12 bitrate=N/A    frame=  667 fps=7.1 q=24.8 size=N/A time=00:00:22.25 bitrate=N/A    frame=  671 fps=7.1 q=24.8 size=N/A time=00:00:22.38 bitrate=N/A    frame=  675 fps=7.1 q=24.8 size=N/A time=00:00:22.52 bitrate=N/A    frame=  679 fps=7.1 q=24.8 size=N/A time=00:00:22.65 bitrate=N/A    frame=  683 fps=7.1 q=24.8 size=N/A time=00:00:22.78 bitrate=N/A    frame=  687 fps=7.1 q=24.8 size=N/A time=00:00:22.92 bitrate=N/A    frame=  691 fps=7.1 q=24.8 size=N/A time=00:00:23.05 bitrate=N/A    frame=  695 fps=7.1 q=24.8 size=N/A time=00:00:23.18 bitrate=N/A    frame=  699 fps=7.1 q=24.8 size=N/A time=00:00:23.32 bitrate=N/A    frame=  703 fps=7.1 q=24.8 size=N/A time=00:00:23.45 bitrate=N/A    frame=  707 fps=7.1 q=24.8 size=N/A time=00:00:23.59 bitrate=N/A    frame=  711 fps=7.1 q=24.8 size=N/A time=00:00:23.72 bitrate=N/A    frame=  715 fps=7.1 q=24.8 size=N/A time=00:00:23.85 bitrate=N/A    frame=  719 fps=7.1 q=24.8 size=N/A time=00:00:23.99 bitrate=N/A    frame=  722 fps=7.1 q=24.8 size=N/A time=00:00:24.09 bitrate=N/A    frame=  726 fps=7.1 q=24.8 size=N/A time=00:00:24.22 bitrate=N/A    frame=  730 fps=7.1 q=24.8 size=N/A time=00:00:24.35 bitrate=N/A    frame=  734 fps=7.1 q=24.8 size=N/A time=00:00:24.49 bitrate=N/A    frame=  738 fps=7.1 q=24.8 size=N/A time=00:00:24.62 bitrate=N/A    frame=  742 fps=7.1 q=24.8 size=N/A time=00:00:24.75 bitrate=N/A    frame=  746 fps=7.1 q=24.8 size=N/A time=00:00:24.89 bitrate=N/A    frame=  750 fps=7.1 q=24.8 size=N/A time=00:00:25.02 bitrate=N/A    frame=  754 fps=7.1 q=24.8 size=N/A time=00:00:25.15 bitrate=N/A    frame=  758 fps=7.1 q=24.8 size=N/A time=00:00:25.29 bitrate=N/A    frame=  762 fps=7.1 q=24.8 size=N/A time=00:00:25.42 bitrate=N/A    frame=  766 fps=7.1 q=24.8 size=N/A time=00:00:25.55 bitrate=N/A    frame=  770 fps=7.1 q=24.8 size=N/A time=00:00:25.69 bitrate=N/A    frame=  774 fps=7.1 q=24.8 size=N/A time=00:00:25.82 bitrate=N/A    frame=  778 fps=7.1 q=24.8 size=N/A time=00:00:25.95 bitrate=N/A    frame=  782 fps=7.1 q=24.8 size=N/A time=00:00:26.09 bitrate=N/A    frame=  786 fps=7.1 q=24.8 size=N/A time=00:00:26.22 bitrate=N/A    frame=  790 fps=7.1 q=24.8 size=N/A time=00:00:26.35 bitrate=N/A    frame=  794 fps=7.1 q=24.8 size=N/A time=00:00:26.49 bitrate=N/A    frame=  798 fps=7.1 q=24.8 size=N/A time=00:00:26.62 bitrate=N/A    frame=  802 fps=7.1 q=24.8 size=N/A time=00:00:26.76 bitrate=N/A    frame=  806 fps=7.1 q=24.8 size=N/A time=00:00:26.89 bitrate=N/A    frame=  810 fps=7.1 q=24.8 size=N/A time=00:00:27.02 bitrate=N/A    frame=  814 fps=7.1 q=24.8 size=N/A time=00:00:27.16 bitrate=N/A    frame=  818 fps=7.1 q=24.8 size=N/A time=00:00:27.29 bitrate=N/A    frame=  822 fps=7.1 q=24.8 size=N/A time=00:00:27.42 bitrate=N/A    frame=  826 fps=7.1 q=24.8 size=N/A time=00:00:27.56 bitrate=N/A    frame=  830 fps=7.1 q=24.8 size=N/A time=00:00:27.69 bitrate=N/A    frame=  834 fps=7.1 q=24.8 size=N/A time=00:00:27.82 bitrate=N/A    frame=  838 fps=7.1 q=24.8 size=N/A time=00:00:27.96 bitrate=N/A    frame=  841 fps=7.1 q=24.8 size=N/A time=00:00:28.06 bitrate=N/A    frame=  845 fps=7.1 q=24.8 size=N/A time=00:00:28.19 bitrate=N/A    frame=  849 fps=7.1 q=24.8 size=N/A time=00:00:28.32 bitrate=N/A    frame=  853 fps=7.1 q=24.8 size=N/A time=00:00:28.46 bitrate=N/A    frame=  857 fps=7.1 q=24.8 size=N/A time=00:00:28.59 bitrate=N/A    frame=  861 fps=7.1 q=24.8 size=N/A time=00:00:28.72 bitrate=N/A    frame=  865 fps=7.1 q=24.8 size=N/A time=00:00:28.86 bitrate=N/A    frame=  869 fps=7.1 q=24.8 size=N/A time=00:00:28.99 bitrate=N/A    frame=  872 fps=7.1 q=24.8 size=N/A time=00:00:29.09 bitrate=N/A    frame=  876 fps=7.1 q=24.8 size=N/A time=00:00:29.22 bitrate=N/A    frame=  880 fps=7.1 q=24.8 size=N/A time=00:00:29.36 bitrate=N/A    frame=  884 fps=7.1 q=24.8 size=N/A time=00:00:29.49 bitrate=N/A    frame=  888 fps=7.1 q=24.8 size=N/A time=00:00:29.62 bitrate=N/A    frame=  892 fps=7.1 q=24.8 size=N/A time=00:00:29.76 bitrate=N/A    frame=  896 fps=7.1 q=24.8 size=N/A time=00:00:29.89 bitrate=N/A    frame=  900 fps=7.1 q=24.8 size=N/A time=00:00:30.03 bitrate=N/A    frame=  904 fps=7.1 q=24.8 size=N/A time=00:00:30.16 bitrate=N/A    frame=  908 fps=7.1 q=24.8 size=N/A time=00:00:30.29 bitrate=N/A    frame=  912 fps=7.1 q=24.8 size=N/A time=00:00:30.43 bitrate=N/A    frame=  916 fps=7.1 q=24.8 size=N/A time=00:00:30.56 bitrate=N/A    frame=  920 fps=7.1 q=24.8 size=N/A time=00:00:30.69 bitrate=N/A    frame=  924 fps=7.1 q=24.8 size=N/A time=00:00:30.83 bitrate=N/A    frame=  928 fps=7.1 q=24.8 size=N/A time=00:00:30.96 bitrate=N/A    frame=  932 fps=7.1 q=24.8 size=N/A time=00:00:31.09 bitrate=N/A    frame=  936 fps=7.1 q=24.8 size=N/A time=00:00:31.23 bitrate=N/A    frame=  940 fps=7.2 q=24.8 size=N/A time=00:00:31.36 bitrate=N/A    frame=  944 fps=7.2 q=24.8 size=N/A time=00:00:31.49 bitrate=N/A    frame=  948 fps=7.2 q=24.8 size=N/A time=00:00:31.63 bitrate=N/A    frame=  952 fps=7.2 q=24.8 size=N/A time=00:00:31.76 bitrate=N/A    frame=  956 fps=7.2 q=24.8 size=N/A time=00:00:31.89 bitrate=N/A    frame=  960 fps=7.2 q=24.8 size=N/A time=00:00:32.03 bitrate=N/A    frame=  964 fps=7.2 q=24.8 size=N/A time=00:00:32.16 bitrate=N/A    frame=  968 fps=7.2 q=24.8 size=N/A time=00:00:32.29 bitrate=N/A    frame=  972 fps=7.2 q=24.8 size=N/A time=00:00:32.43 bitrate=N/A    frame=  976 fps=7.2 q=24.8 size=N/A time=00:00:32.56 bitrate=N/A    frame=  980 fps=7.2 q=24.8 size=N/A time=00:00:32.69 bitrate=N/A    frame=  984 fps=7.2 q=24.8 size=N/A time=00:00:32.83 bitrate=N/A    frame=  988 fps=7.2 q=24.8 size=N/A time=00:00:32.96 bitrate=N/A    frame=  992 fps=7.2 q=24.8 size=N/A time=00:00:33.09 bitrate=N/A    frame=  996 fps=7.2 q=24.8 size=N/A time=00:00:33.23 bitrate=N/A    frame= 1000 fps=7.2 q=24.8 size=N/A time=00:00:33.36 bitrate=N/A    frame= 1004 fps=7.2 q=24.8 size=N/A time=00:00:33.50 bitrate=N/A    frame= 1008 fps=7.2 q=24.8 size=N/A time=00:00:33.63 bitrate=N/A    frame= 1012 fps=7.2 q=24.8 size=N/A time=00:00:33.76 bitrate=N/A    frame= 1016 fps=7.2 q=24.8 size=N/A time=00:00:33.90 bitrate=N/A    frame= 1020 fps=7.2 q=24.8 size=N/A time=00:00:34.03 bitrate=N/A    frame= 1024 fps=7.2 q=24.8 size=N/A time=00:00:34.16 bitrate=N/A    frame= 1028 fps=7.2 q=24.8 size=N/A time=00:00:34.30 bitrate=N/A    frame= 1032 fps=7.2 q=24.8 size=N/A time=00:00:34.43 bitrate=N/A    frame= 1036 fps=7.2 q=24.8 size=N/A time=00:00:34.56 bitrate=N/A    frame= 1040 fps=7.2 q=24.8 size=N/A time=00:00:34.70 bitrate=N/A    frame= 1044 fps=7.2 q=24.8 size=N/A time=00:00:34.83 bitrate=N/A    frame= 1048 fps=7.2 q=24.8 size=N/A time=00:00:34.96 bitrate=N/A    frame= 1051 fps=7.2 q=24.8 size=N/A time=00:00:35.06 bitrate=N/A    frame= 1055 fps=7.2 q=24.8 size=N/A time=00:00:35.20 bitrate=N/A    frame= 1059 fps=7.2 q=24.8 size=N/A time=00:00:35.33 bitrate=N/A    frame= 1063 fps=7.2 q=24.8 size=N/A time=00:00:35.46 bitrate=N/A    frame= 1067 fps=7.2 q=24.8 size=N/A time=00:00:35.60 bitrate=N/A    frame= 1071 fps=7.2 q=24.8 size=N/A time=00:00:35.73 bitrate=N/A    frame= 1075 fps=7.2 q=24.8 size=N/A time=00:00:35.86 bitrate=N/A    frame= 1079 fps=7.2 q=24.8 size=N/A time=00:00:36.00 bitrate=N/A    frame= 1083 fps=7.2 q=24.8 size=N/A time=00:00:36.13 bitrate=N/A    frame= 1087 fps=7.2 q=24.8 size=N/A time=00:00:36.26 bitrate=N/A    frame= 1091 fps=7.2 q=24.8 size=N/A time=00:00:36.40 bitrate=N/A    frame= 1095 fps=7.2 q=24.8 size=N/A time=00:00:36.53 bitrate=N/A    frame= 1099 fps=7.2 q=24.8 size=N/A time=00:00:36.66 bitrate=N/A    frame= 1103 fps=7.2 q=24.8 size=N/A time=00:00:36.80 bitrate=N/A    frame= 1107 fps=7.2 q=24.8 size=N/A time=00:00:36.93 bitrate=N/A    frame= 1111 fps=7.2 q=24.8 size=N/A time=00:00:37.07 bitrate=N/A    frame= 1115 fps=7.2 q=24.8 size=N/A time=00:00:37.20 bitrate=N/A    frame= 1119 fps=7.2 q=24.8 size=N/A time=00:00:37.33 bitrate=N/A    frame= 1123 fps=7.2 q=24.8 size=N/A time=00:00:37.47 bitrate=N/A    frame= 1127 fps=7.2 q=24.8 size=N/A time=00:00:37.60 bitrate=N/A    frame= 1131 fps=7.2 q=24.8 size=N/A time=00:00:37.73 bitrate=N/A    frame= 1135 fps=7.2 q=24.8 size=N/A time=00:00:37.87 bitrate=N/A    frame= 1139 fps=7.2 q=24.8 size=N/A time=00:00:38.00 bitrate=N/A    frame= 1143 fps=7.2 q=24.8 size=N/A time=00:00:38.13 bitrate=N/A    frame= 1147 fps=7.2 q=24.8 size=N/A time=00:00:38.27 bitrate=N/A    frame= 1151 fps=7.2 q=24.8 size=N/A time=00:00:38.40 bitrate=N/A    frame= 1155 fps=7.2 q=24.8 size=N/A time=00:00:38.53 bitrate=N/A    frame= 1159 fps=7.2 q=24.8 size=N/A time=00:00:38.67 bitrate=N/A    frame= 1163 fps=7.2 q=24.8 size=N/A time=00:00:38.80 bitrate=N/A    frame= 1167 fps=7.2 q=24.8 size=N/A time=00:00:38.93 bitrate=N/A    frame= 1171 fps=7.2 q=24.8 size=N/A time=00:00:39.07 bitrate=N/A    frame= 1175 fps=7.2 q=24.8 size=N/A time=00:00:39.20 bitrate=N/A    frame= 1179 fps=7.2 q=24.8 size=N/A time=00:00:39.33 bitrate=N/A    frame= 1183 fps=7.2 q=24.8 size=N/A time=00:00:39.47 bitrate=N/A    frame= 1187 fps=7.2 q=24.8 size=N/A time=00:00:39.60 bitrate=N/A    frame= 1191 fps=7.2 q=24.8 size=N/A time=00:00:39.73 bitrate=N/A    frame= 1195 fps=7.2 q=24.8 size=N/A time=00:00:39.87 bitrate=N/A    frame= 1199 fps=7.2 q=24.8 size=N/A time=00:00:40.00 bitrate=N/A    frame= 1203 fps=7.2 q=24.8 size=N/A time=00:00:40.14 bitrate=N/A    frame= 1207 fps=7.2 q=24.8 size=N/A time=00:00:40.27 bitrate=N/A    frame= 1211 fps=7.2 q=24.8 size=N/A time=00:00:40.40 bitrate=N/A    frame= 1215 fps=7.2 q=24.8 size=N/A time=00:00:40.54 bitrate=N/A    frame= 1219 fps=7.2 q=24.8 size=N/A time=00:00:40.67 bitrate=N/A    frame= 1223 fps=7.2 q=24.8 size=N/A time=00:00:40.80 bitrate=N/A    frame= 1227 fps=7.2 q=24.8 size=N/A time=00:00:40.94 bitrate=N/A    frame= 1231 fps=7.2 q=24.8 size=N/A time=00:00:41.07 bitrate=N/A    frame= 1235 fps=7.2 q=24.8 size=N/A time=00:00:41.20 bitrate=N/A    frame= 1239 fps=7.2 q=24.8 size=N/A time=00:00:41.34 bitrate=N/A    frame= 1243 fps=7.2 q=24.8 size=N/A time=00:00:41.47 bitrate=N/A    frame= 1247 fps=7.2 q=24.8 size=N/A time=00:00:41.60 bitrate=N/A    frame= 1251 fps=7.2 q=24.8 size=N/A time=00:00:41.74 bitrate=N/A    frame= 1255 fps=7.2 q=24.8 size=N/A time=00:00:41.87 bitrate=N/A    frame= 1259 fps=7.2 q=24.8 size=N/A time=00:00:42.00 bitrate=N/A    frame= 1262 fps=7.2 q=24.8 size=N/A time=00:00:42.10 bitrate=N/A    frame= 1266 fps=7.2 q=24.8 size=N/A time=00:00:42.24 bitrate=N/A    frame= 1270 fps=7.2 q=24.8 size=N/A time=00:00:42.37 bitrate=N/A    frame= 1274 fps=7.2 q=24.8 size=N/A time=00:00:42.50 bitrate=N/A    frame= 1278 fps=7.2 q=24.8 size=N/A time=00:00:42.64 bitrate=N/A    frame= 1282 fps=7.2 q=24.8 size=N/A time=00:00:42.77 bitrate=N/A    frame= 1286 fps=7.2 q=24.8 size=N/A time=00:00:42.90 bitrate=N/A    frame= 1290 fps=7.2 q=24.8 size=N/A time=00:00:43.04 bitrate=N/A    frame= 1293 fps=7.2 q=24.8 size=N/A time=00:00:43.14 bitrate=N/A    frame= 1297 fps=7.2 q=24.8 size=N/A time=00:00:43.27 bitrate=N/A    frame= 1301 fps=7.2 q=24.8 size=N/A time=00:00:43.41 bitrate=N/A    frame= 1305 fps=7.2 q=24.8 size=N/A time=00:00:43.54 bitrate=N/A    frame= 1309 fps=7.2 q=24.8 size=N/A time=00:00:43.67 bitrate=N/A    frame= 1313 fps=7.2 q=24.8 size=N/A time=00:00:43.81 bitrate=N/A    frame= 1317 fps=7.2 q=24.8 size=N/A time=00:00:43.94 bitrate=N/A    frame= 1321 fps=7.2 q=24.8 size=N/A time=00:00:44.07 bitrate=N/A    frame= 1325 fps=7.2 q=24.8 size=N/A time=00:00:44.21 bitrate=N/A    frame= 1329 fps=7.2 q=24.8 size=N/A time=00:00:44.34 bitrate=N/A    frame= 1333 fps=7.2 q=24.8 size=N/A time=00:00:44.47 bitrate=N/A    frame= 1337 fps=7.2 q=24.8 size=N/A time=00:00:44.61 bitrate=N/A    frame= 1341 fps=7.2 q=24.8 size=N/A time=00:00:44.74 bitrate=N/A    frame= 1345 fps=7.2 q=24.8 size=N/A time=00:00:44.87 bitrate=N/A    frame= 1349 fps=7.2 q=24.8 size=N/A time=00:00:45.01 bitrate=N/A    frame= 1353 fps=7.2 q=24.8 size=N/A time=00:00:45.14 bitrate=N/A    frame= 1357 fps=7.2 q=24.8 size=N/A time=00:00:45.27 bitrate=N/A    frame= 1361 fps=7.2 q=24.8 size=N/A time=00:00:45.41 bitrate=N/A    frame= 1365 fps=7.2 q=24.8 size=N/A time=00:00:45.54 bitrate=N/A    frame= 1369 fps=7.2 q=24.8 size=N/A time=00:00:45.67 bitrate=N/A    frame= 1373 fps=7.2 q=24.8 size=N/A time=00:00:45.81 bitrate=N/A    frame= 1377 fps=7.2 q=24.8 size=N/A time=00:00:45.94 bitrate=N/A    frame= 1381 fps=7.2 q=24.8 size=N/A time=00:00:46.07 bitrate=N/A    frame= 1385 fps=7.2 q=24.8 size=N/A time=00:00:46.21 bitrate=N/A    frame= 1389 fps=7.2 q=24.8 size=N/A time=00:00:46.34 bitrate=N/A    frame= 1393 fps=7.2 q=24.8 size=N/A time=00:00:46.47 bitrate=N/A    frame= 1397 fps=7.2 q=24.8 size=N/A time=00:00:46.61 bitrate=N/A    frame= 1401 fps=7.2 q=24.8 size=N/A time=00:00:46.74 bitrate=N/A    frame= 1405 fps=7.2 q=24.8 size=N/A time=00:00:46.88 bitrate=N/A    frame= 1405 fps=7.2 q=24.8 Lsize=N/A time=00:00:46.88 bitrate=N/A    
video:1678367kB audio:0kB subtitle:0kB other streams:0kB global headers:0kB muxing overhead: unknown
+ turkic load DJI_0005_30m_taposas_gabona_repce_kistape_kistape_20180313_napos_kalaszos_T1 /home/horvathandras/vatic/vatic/videos/DJI_0005_30m_taposas_gabona_repce_kistape_kistape_20180313_napos_kalaszos_T1 $'Pozit\303\255vROI' $'Negat\303\255vROI' $'T\303\272r\303\241s' '~Friss' '~1-2Hetes' '~Régebbi' '~Egyéb1' '~Egyéb2' '~Egyéb3' $'R\303\241g\303\241s' '~Friss' '~1-2Hetes' '~Régebbi' '~Egyéb1' '~Egyéb2' '~Egyéb3' $'T\303\266r\303\251s' '~Friss' '~1-2Hetes' '~Régebbi' '~Egyéb1' '~Egyéb2' '~Egyéb3' $'Tapos\303\241s' '~Friss' '~1-2Hetes' '~Régebbi' '~Egyéb1' '~Egyéb2' '~Egyéb3' $'Eg\303\251szs\303\251gesN\303\266v\303\251ny' $'Egy\303\251b1' $'Egy\303\251b2' $'Egy\303\251b3' $'Egy\303\251b4' $'Egy\303\251b5' Bizonytalan $'M\305\261vel\305\221\303\272t' $'Gktapos\303\241s' $'Vet\305\221hiba' $'Sz\303\251ld\303\266nt\303\251s' $'J\303\251gk\303\241r' $'Belv\303\255z' $'Asz\303\241ly' $'Er\303\263zi\303\263' $'Egyszik\305\261Gyom' $'K\303\251tszik\305\261Gyom' $'Egy\303\251bN\303\266vv\303\251delmiPR' --offline --title '$filenameNoDot Video' --length 1000 --description 'vatic annotation'
+ turkic publish --offline
+ mkdir /home/horvathandras/vatic/vatic/public/videothumbnails/DJI_0005_30m_taposas_gabona_repce_kistape_kistape_20180313_napos_kalaszos_T1
+ cp /home/horvathandras/vatic/vatic/videos/DJI_0005_30m_taposas_gabona_repce_kistape_kistape_20180313_napos_kalaszos_T1/0/0/31.jpg /home/horvathandras/vatic/vatic/public/videothumbnails/DJI_0005_30m_taposas_gabona_repce_kistape_kistape_20180313_napos_kalaszos_T1/thumb.jpg
